<!-- barrel-rolling-sprite-v2.svg | 8 frames × 64px = 512×64 -->
<svg xmlns="http://www.w3.org/2000/svg" width="512" height="64" viewBox="0 0 512 64">
  <!-- Frame 0: 0 degrees -->
  <g transform="translate(0,0)">
    <circle cx="32" cy="32" r="30" fill="#6e4730"/>
    <circle cx="32" cy="32" r="30" fill="none" stroke="#3b2413" stroke-width="4"/>
    <circle cx="32" cy="32" r="26" fill="#8f5f3b"/>
    <g stroke="#6e4730" stroke-width="4" stroke-linecap="round" opacity="0.85">
      <line x1="32" y1="8" x2="32" y2="56"/>
      <line x1="47.86" y1="14" x2="16.14" y2="50"/>
      <line x1="56" y1="32" x2="8" y2="32"/>
      <line x1="47.86" y1="50" x2="16.14" y2="14"/>
    </g>
    <circle cx="32" cy="32" r="22" fill="none" stroke="#b8c1cc" stroke-width="6"/>
    <circle cx="32" cy="32" r="16" fill="none" stroke="#9aa3ad" stroke-width="6"/>
    <circle cx="46" cy="28" r="3.2" fill="#3b2413" opacity="0.9"/>
    <ellipse cx="24" cy="24" rx="10" ry="6" fill="#ffffff" opacity="0.12"/>
  </g>

  <!-- Frame 1: 45 degrees -->
  <g transform="translate(64,0)">
    <circle cx="32" cy="32" r="30" fill="#6e4730"/>
    <circle cx="32" cy="32" r="30" fill="none" stroke="#3b2413" stroke-width="4"/>
    <circle cx="32" cy="32" r="26" fill="#8f5f3b"/>
    <g stroke="#6e4730" stroke-width="4" stroke-linecap="round" opacity="0.85" transform="rotate(45 32 32)">
      <line x1="32" y1="8" x2="32" y2="56"/>
      <line x1="47.86" y1="14" x2="16.14" y2="50"/>
      <line x1="56" y1="32" x2="8" y2="32"/>
      <line x1="47.86" y1="50" x2="16.14" y2="14"/>
    </g>
    <circle cx="32" cy="32" r="22" fill="none" stroke="#b8c1cc" stroke-width="6"/>
    <circle cx="32" cy="32" r="16" fill="none" stroke="#9aa3ad" stroke-width="6"/>
    <circle cx="46" cy="28" r="3.2" fill="#3b2413" opacity="0.9"/>
    <ellipse cx="24" cy="24" rx="10" ry="6" fill="#ffffff" opacity="0.12"/>
  </g>

  <!-- Frame 2: 90 degrees -->
  <g transform="translate(128,0)">
    <circle cx="32" cy="32" r="30" fill="#6e4730"/>
    <circle cx="32" cy="32" r="30" fill="none" stroke="#3b2413" stroke-width="4"/>
    <circle cx="32" cy="32" r="26" fill="#8f5f3b"/>
    <g stroke="#6e4730" stroke-width="4" stroke-linecap="round" opacity="0.85" transform="rotate(90 32 32)">
      <line x1="32" y1="8" x2="32" y2="56"/>
      <line x1="47.86" y1="14" x2="16.14" y2="50"/>
      <line x1="56" y1="32" x2="8" y2="32"/>
      <line x1="47.86" y1="50" x2="16.14" y2="14"/>
    </g>
    <circle cx="32" cy="32" r="22" fill="none" stroke="#b8c1cc" stroke-width="6"/>
    <circle cx="32" cy="32" r="16" fill="none" stroke="#9aa3ad" stroke-width="6"/>
    <circle cx="46" cy="28" r="3.2" fill="#3b2413" opacity="0.9"/>
    <ellipse cx="24" cy="24" rx="10" ry="6" fill="#ffffff" opacity="0.12"/>
  </g>

  <!-- Frame 3: 135 degrees -->
  <g transform="translate(192,0)">
    <circle cx="32" cy="32" r="30" fill="#6e4730"/>
    <circle cx="32" cy="32" r="30" fill="none" stroke="#3b2413" stroke-width="4"/>
    <circle cx="32" cy="32" r="26" fill="#8f5f3b"/>
    <g stroke="#6e4730" stroke-width="4" stroke-linecap="round" opacity="0.85" transform="rotate(135 32 32)">
      <line x1="32" y1="8" x2="32" y2="56"/>
      <line x1="47.86" y1="14" x2="16.14" y2="50"/>
      <line x1="56" y1="32" x2="8" y2="32"/>
      <line x1="47.86" y1="50" x2="16.14" y2="14"/>
    </g>
    <circle cx="32" cy="32" r="22" fill="none" stroke="#b8c1cc" stroke-width="6"/>
    <circle cx="32" cy="32" r="16" fill="none" stroke="#9aa3ad" stroke-width="6"/>
    <circle cx="46" cy="28" r="3.2" fill="#3b2413" opacity="0.9"/>
    <ellipse cx="24" cy="24" rx="10" ry="6" fill="#ffffff" opacity="0.12"/>
  </g>

  <!-- Frame 4: 180 degrees -->
  <g transform="translate(256,0)">
    <circle cx="32" cy="32" r="30" fill="#6e4730"/>
    <circle cx="32" cy="32" r="30" fill="none" stroke="#3b2413" stroke-width="4"/>
    <circle cx="32" cy="32" r="26" fill="#8f5f3b"/>
    <g stroke="#6e4730" stroke-width="4" stroke-linecap="round" opacity="0.85" transform="rotate(180 32 32)">
      <line x1="32" y1="8" x2="32" y2="56"/>
      <line x1="47.86" y1="14" x2="16.14" y2="50"/>
      <line x1="56" y1="32" x2="8" y2="32"/>
      <line x1="47.86" y1="50" x2="16.14" y2="14"/>
    </g>
    <circle cx="32" cy="32" r="22" fill="none" stroke="#b8c1cc" stroke-width="6"/>
    <circle cx="32" cy="32" r="16" fill="none" stroke="#9aa3ad" stroke-width="6"/>
    <circle cx="46" cy="28" r="3.2" fill="#3b2413" opacity="0.9"/>
    <ellipse cx="24" cy="24" rx="10" ry="6" fill="#ffffff" opacity="0.12"/>
  </g>

  <!-- Frame 5: 225 degrees -->
  <g transform="translate(320,0)">
    <circle cx="32" cy="32" r="30" fill="#6e4730"/>
    <circle cx="32" cy="32" r="30" fill="none" stroke="#3b2413" stroke-width="4"/>
    <circle cx="32" cy="32" r="26" fill="#8f5f3b"/>
    <g stroke="#6e4730" stroke-width="4" stroke-linecap="round" opacity="0.85" transform="rotate(225 32 32)">
      <line x1="32" y1="8" x2="32" y2="56"/>
      <line x1="47.86" y1="14" x2="16.14" y2="50"/>
      <line x1="56" y1="32" x2="8" y2="32"/>
      <line x1="47.86" y1="50" x2="16.14" y2="14"/>
    </g>
    <circle cx="32" cy="32" r="22" fill="none" stroke="#b8c1cc" stroke-width="6"/>
    <circle cx="32" cy="32" r="16" fill="none" stroke="#9aa3ad" stroke-width="6"/>
    <circle cx="46" cy="28" r="3.2" fill="#3b2413" opacity="0.9"/>
    <ellipse cx="24" cy="24" rx="10" ry="6" fill="#ffffff" opacity="0.12"/>
  </g>

  <!-- Frame 6: 270 degrees -->
  <g transform="translate(384,0)">
    <circle cx="32" cy="32" r="30" fill="#6e4730"/>
    <circle cx="32" cy="32" r="30" fill="none" stroke="#3b2413" stroke-width="4"/>
    <circle cx="32" cy="32" r="26" fill="#8f5f3b"/>
    <g stroke="#6e4730" stroke-width="4" stroke-linecap="round" opacity="0.85" transform="rotate(270 32 32)">
      <line x1="32" y1="8" x2="32" y2="56"/>
      <line x1="47.86" y1="14" x2="16.14" y2="50"/>
      <line x1="56" y1="32" x2="8" y2="32"/>
      <line x1="47.86" y1="50" x2="16.14" y2="14"/>
    </g>
    <circle cx="32" cy="32" r="22" fill="none" stroke="#b8c1cc" stroke-width="6"/>
    <circle cx="32" cy="32" r="16" fill="none" stroke="#9aa3ad" stroke-width="6"/>
    <circle cx="46" cy="28" r="3.2" fill="#3b2413" opacity="0.9"/>
    <ellipse cx="24" cy="24" rx="10" ry="6" fill="#ffffff" opacity="0.12"/>
  </g>

  <!-- Frame 7: 315 degrees -->
  <g transform="translate(448,0)">
    <circle cx="32" cy="32" r="30" fill="#6e4730"/>
    <circle cx="32" cy="32" r="30" fill="none" stroke="#3b2413" stroke-width="4"/>
    <circle cx="32" cy="32" r="26" fill="#8f5f3b"/>
    <g stroke="#6e4730" stroke-width="4" stroke-linecap="round" opacity="0.85" transform="rotate(315 32 32)">
      <line x1="32" y1="8" x2="32" y2="56"/>
      <line x1="47.86" y1="14" x2="16.14" y2="50"/>
      <line x1="56" y1="32" x2="8" y2="32"/>
      <line x1="47.86" y1="50" x2="16.14" y2="14"/>
    </g>
    <circle cx="32" cy="32" r="22" fill="none" stroke="#b8c1cc" stroke-width="6"/>
    <circle cx="32" cy="32" r="16" fill="none" stroke="#9aa3ad" stroke-width="6"/>
    <circle cx="46" cy="28" r="3.2" fill="#3b2413" opacity="0.9"/>
    <ellipse cx="24" cy="24" rx="10" ry="6" fill="#ffffff" opacity="0.12"/>
  </g>
</svg>
